# xmcd CD database file
# Copyright (C) 1993-1998 Ti Kan
#
# Track frame offsets:
#  200
#  13162
#  25305
#  38312
#  53015
#  66745
#  77885
#  90062
#  101567
#  112800
#  124282
#  137117
#
# Disc length: 1993 seconds
#
# Revision: 1
# Processed by: cddbd v1.4b41PL1 Copyright (c) Steve Scherf et al.
# Submitted via: CDWizzard Release:4.35
#
DISCID=9407c70c
DTITLE=Mad Lads - Mad Lads Greatest Hits
DYEAR=1900
DGENRE=
TTITLE0=Don't Have to Shop Around
TTITLE1=Come Closer To Me
TTITLE2=What Will Love Tend To Make You Do
TTITLE3=My Inspiration
TTITLE4=What Ever Hurts You
TTITLE5=I Don't Want To Lose Your Love
TTITLE6=I Want Someone
TTITLE7=Patch My Heart
TTITLE8=Sugar Sugar
TTITLE9=You Mean So Much To Me
TTITLE10=Three Simple Reasons
TTITLE11=I Want A Girl
EXTD=
EXTT0=
EXTT1=
EXTT2=
EXTT3=
EXTT4=
EXTT5=
EXTT6=
EXTT7=
EXTT8=
EXTT9=
EXTT10=
EXTT11=
PLAYORDER=
